:SAMPLES-PER-SECOND 30
:FULLY-SPECIFIED
:DEGREES
1466
root  -54.2531 38.4675 10.2612 -44.1192 -81.9354 44.5838
RightUpLeg  -15.9473 -7.63354 -3.97832
RightLeg  161.55 -50.6403 -167.643
RightFoot  7.22282 -82.8811 159.834
RightToes  -6.98493e-010 0 -3.6325e-017
Spine  22.0639 -4.92935 4.76161
Spine1  5.75157 -2.15758 -7.85975
HEad  62.5927 -26.9485 -131.945
LeftShoulder1  2.62423 -7.59032 -16.9932
LeftArm  -9.11245 -58.8916 -45.0723
LeftForeArm  -11.8317 -19.2074 -5.08463
LeftHand  -0.0945952 2.90279 3.79867
RightShoulder  1.18185 2.98443 11.0532
RightArm  -13.2302 65.2825 26.8877
RightForeArm  -32.5227 1.90929 4.9255
RightHand  -0.10961 7.70816 -1.33628
LeftUpLeg  -27.7922 1.50157 -5.02058
LeftLeg  40.4604 -0.83618 -0.348127
LeftFoot  -8.87168 0.129931 -3.5935
LeftToes  7.91257e-010 -1.64976e-010 -3.02228e-011
1467
root  -54.5125 38.6118 10.0177 -41.4302 -81.3198 42.6838
RightUpLeg  -15.4101 -8.01894 -3.79069
RightLeg  162.475 -56.178 -167.538
RightFoot  0.886609 -77.2945 165.419
RightToes  -6.98493e-010 0 -3.6325e-017
Spine  22.0471 -5.13952 4.70368
Spine1  5.89383 -2.18382 -8.23044
HEad  63.451 -27.4201 -132.339
LeftShoulder1  2.59183 -8.03925 -15.6762
LeftArm  -10.3477 -59.887 -44.5307
LeftForeArm  -12.098 -17.6844 -4.92459
LeftHand  -0.0920323 3.16622 4.10069
RightShoulder  1.16841 2.83197 11.3148
RightArm  -15.397 66.9872 25.767
RightForeArm  -30.4854 0.0911903 4.35744
RightHand  -0.0609802 6.95379 -0.928871
LeftUpLeg  -27.0788 0.160279 -5.81412
LeftLeg  33.4589 -1.17903 -0.459846
LeftFoot  -9.09918 0.13255 -3.9788
LeftToes  7.91257e-010 -1.64976e-010 -3.02228e-011
1468
root  -54.7528 38.7116 9.82633 -38.6534 -80.8256 40.7476
RightUpLeg  -15.2801 -8.43511 -3.60379
RightLeg  163.367 -59.4189 -167.734
RightFoot  -0.678689 -74.0104 166.609
RightToes  -6.98493e-010 0 -3.6325e-017
Spine  22.1956 -5.29746 4.7599
Spine1  5.44028 -2.18816 -8.40463
HEad  63.7926 -27.5149 -132.202
LeftShoulder1  2.62832 -8.39914 -15.2702
LeftArm  -11.1778 -60.493 -44.3472
LeftForeArm  -12.1994 -17.103 -4.77983
LeftHand  -0.052883 4.5555 4.37598
RightShoulder  1.17935 2.97894 11.0382
RightArm  -16.9571 67.9746 24.5126
RightForeArm  -30.0841 -1.61525 4.08781
RightHand  -0.0489825 7.03309 -0.81346
LeftUpLeg  -26.4257 -2.19827 -6.16228
LeftLeg  26.8576 -1.99107 -0.71184
LeftFoot  -8.70721 0.156524 -4.2146
LeftToes  7.91257e-010 -1.64976e-010 -3.02228e-011
1469
root  -54.995 38.8086 9.65955 -38.8638 -80.726 41.6593
RightUpLeg  -15.0815 -8.35899 -3.44417
RightLeg  165.054 -60.9283 -169.007
RightFoot  -0.866284 -72.5879 166.546
RightToes  -6.98493e-010 0 -3.6325e-017
Spine  22.0784 -5.16881 4.43952
Spine1  5.63984 -1.92712 -8.48677
HEad  63.9058 -27.7508 -132.662
LeftShoulder1  2.64033 -8.59387 -14.9905
LeftArm  -11.9005 -61.4512 -43.9388
LeftForeArm  -12.5141 -16.4826 -4.65571
LeftHand  -0.0608533 4.4314 5.00502
RightShoulder  1.17966 3.21316 10.3334
RightArm  -19.2603 68.6365 23.2127
RightForeArm  -30.2919 -2.88702 3.50853
RightHand  -0.0545497 6.97837 -0.866583
LeftUpLeg  -25.8575 -4.08131 -6.57581
LeftLeg  21.7413 -4.42882 -1.31613
LeftFoot  -5.26124 0.154448 -3.00275
LeftToes  7.91257e-010 -1.64976e-010 -3.02228e-011
1470
root  -55.2412 38.8433 9.53229 -40.1198 -81.0497 43.4619
RightUpLeg  -15.2312 -7.75248 -3.15584
RightLeg  164.613 -63.0344 -168.431
RightFoot  -2.34683 -70.2782 167.997
RightToes  -6.98493e-010 0 -3.6325e-017
Spine  22.1651 -5.00912 4.30994
Spine1  5.50438 -1.56532 -8.93443
HEad  63.6733 -28.5559 -131.709
LeftShoulder1  2.64642 -8.83573 -14.576
LeftArm  -13.0155 -61.7805 -43.0469
LeftForeArm  -12.3648 -16.3565 -4.4995
LeftHand  -0.0596419 4.25351 4.1571
RightShoulder  1.20278 3.42518 10.1029
RightArm  -20.8884 69.0874 22.5801
RightForeArm  -29.8189 -3.72418 2.97397
RightHand  -0.0495171 7.15415 -0.815148
LeftUpLeg  -25.668 -3.99462 -7.35207
LeftLeg  19.6724 -9.02572 -2.45705
LeftFoot  0.609831 -0.149088 1.57312
LeftToes  7.91257e-010 -1.64976e-010 -3.02228e-011
